{"title":"Sweetheart Chocolate 2013 WEB-DL x264 AC3-DYDao","uid":9860532,"size":3755163818,"categoryP":"video","categoryS":"hd___movies","magnet":"?xt=urn:btih:a20c4a8a203e8ea0b3e4304f95dce40cb011d897&amp;dn=Sweetheart+Chocolate+2013+WEB-DL+x264+AC3-DYDao&amp;tr=udp%3A%2F%2Ftracker.openbittorrent.com%3A80&amp;tr=udp%3A%2F%2Fopen.demonii.com%3A1337&amp;tr=udp%3A%2F%2Ftracker.coppersurfer.tk%3A6969&amp;tr=udp%3A%2F%2Fexodus.desync.com%3A6969","seeders":1,"leechers":4,"uploader":"divachen","files":3,"time":1396288394,"description":"[img]http://ww2.sinaimg.cn/large/a83bb572jw1eezcyymjxjj215o1mc4py.jpg[/img]\n[img]http://ww3.sinaimg.cn/large/a83bb572jw1eezd4xdd79j20ts15oqg9.jpg[/img]\n\n[code]General \nComplete name : Sweetheart.Chocolate.2013.WEB-DL.x264.AC3-DYDao.mkv\nFile size : 3.50 GiB \nDuration : 1h 42mn \nOverall bit rate : 4 863 Kbps \nEncoded date : UTC 2014-03-31 15:08:45 \n\nVideo \nID : 1 \nFormat : AVC \nFormat/Info : Advanced Video Codec \nFormat profile : &lt;a class=&quot;__cf_email__&quot; href=&quot;/cdn-cgi/l/email-protection&quot; data-cfemail=&quot;1b53727c735b5728352a&quot;&gt;[email&amp;#160;protected]&lt;/a&gt;&lt;script cf-hash='f9e31' type=&quot;text/javascript&quot;&gt;\n/* &lt;![CDATA[ */!function(){try{var t=&quot;currentScript&quot;in document?document.currentScript:function(){for(var t=document.getElementsByTagName(&quot;script&quot;),e=t.length;e--;)if(t[e].getAttribute(&quot;cf-hash&quot;))return t[e]}();if(t&amp;&amp;t.previousSibling){var e,r,n,i,c=t.previousSibling,a=c.getAttribute(&quot;data-cfemail&quot;);if(a){for(e=&quot;&quot;,r=parseInt(a.substr(0,2),16),n=2;a.length-n;n+=2)i=parseInt(a.substr(n,2),16)^r,e+=String.fromCharCode(i);e=document.createTextNode(e),c.parentNode.replaceChild(e,c)}}}catch(u){}}();/* ]]&gt; */&lt;/script&gt; \nFormat settings, CABAC : Yes \nFormat settings, ReFrames : 4 frames \nCodec ID : V_MPEG4/ISO/AVC \nDuration : 1h 42mn \nBit rate : 4 414 Kbps \nWidth : 1 280 pixels \nHeight : 544 pixels \nDisplay aspect ratio : 2.35:1 \nFrame rate mode : Constant \nFrame rate : 23.976 fps \nColor space : YUV \nChroma subsampling : 4:2:0 \nBit depth : 8 bits \nScan type : Progressive \nBits/(Pixel*Frame) : 0.264 \nStream size : 3.11 GiB (89%) \nWriting library : x264 core 120 r2164 da19765 \nDefault : Yes \nForced : No \n \nAudio \nID : 2 \nFormat : AC-3 \nFormat/Info : Audio Coding 3 \nMode extension : CM (complete main) \nFormat settings, Endianness : Big \nCodec ID : A_AC3 \nDuration : 1h 42mn \nBit rate mode : Constant \nBit rate : 448 Kbps \nChannel(s) : 2 channels \nChannel positions : Front: L R \nSampling rate : 44.1 KHz \nBit depth : 16 bits \nCompression mode : Lossy \nStream size : 330 MiB (9%) \nDefault : Yes \nForced : No [/code]\n\n[url=http://imgbox.com/uo5jY5q1][img]http://t.imgbox.com/uo5jY5q1.jpg[/img][/url] [url=http://imgbox.com/el753Tnv][img]http://t.imgbox.com/el753Tnv.jpg[/img][/url] [url=http://imgbox.com/4RhlMeIm][img]http://t.imgbox.com/4RhlMeIm.jpg[/img][/url] [url=http://imgbox.com/7UTjimmS][img]http://t.imgbox.com/7UTjimmS.jpg[/img][/url] [url=http://imgbox.com/Oi4rsxHz][img]http://t.imgbox.com/Oi4rsxHz.jpg[/img][/url] [url=http://imgbox.com/puaksHHi][img]http://t.imgbox.com/puaksHHi.jpg[/img][/url] [url=http://imgbox.com/25Knqbcz][img]http://t.imgbox.com/25Knqbcz.jpg[/img][/url] [url=http://imgbox.com/BABRt5lk][img]http://t.imgbox.com/BABRt5lk.jpg[/img][/url]","torrent":{"xt":"urn:btih:a20c4a8a203e8ea0b3e4304f95dce40cb011d897","amp;dn":"Sweetheart+Chocolate+2013+WEB-DL+x264+AC3-DYDao","amp;tr":["udp%3A%2F%2Ftracker.openbittorrent.com%3A80","udp%3A%2F%2Fopen.demonii.com%3A1337","udp%3A%2F%2Ftracker.coppersurfer.tk%3A6969","udp%3A%2F%2Fexodus.desync.com%3A6969"],"infoHash":"a20c4a8a203e8ea0b3e4304f95dce40cb011d897","infoHashBuffer":{"type":"Buffer","data":[162,12,74,138,32,62,142,160,179,228,48,79,149,220,228,12,176,17,216,151]},"announce":[],"urlList":[]}}